<?xml version="1.0" encoding="UTF-8"?>
<svg id="Layer_1" xmlns="http://www.w3.org/2000/svg" version="1.1" viewBox="0 0 177 32">
  <!-- Generator: Adobe Illustrator 29.2.1, SVG Export Plug-In . SVG Version: 2.1.0 Build 116)  -->
  <defs>
    <style>
      .st0 {
        fill: #fff;
      }
    </style>
  </defs>
  <path class="st0" d="M177,24.2c0,.2-.2.3-.3.4-.1,0-.2,0-.4,0s-.1,0-.2,0c-.2,0-.3-.2-.4-.4l-4-7.6h-3.3c-.2,0-.4,0-.5-.2-.1-.1-.2-.3-.2-.5s0-.4.2-.5c.1-.1.3-.2.5-.2h3.6c.7,0,1.3-.2,1.8-.5.5-.3,1-.8,1.3-1.3.3-.5.5-1.2.5-1.8s-.2-1.3-.5-1.8c-.3-.5-.8-1-1.3-1.3-.5-.3-1.1-.5-1.8-.5h-5.2v16c0,.2,0,.4-.2.5-.1.1-.3.2-.5.2s-.4,0-.5-.2c-.1-.1-.2-.3-.2-.5V7.3c0-.2,0-.4.2-.5.1-.1.3-.2.5-.2h6c.9,0,1.8.2,2.5.7.7.5,1.4,1.1,1.8,1.8.5.8.7,1.6.7,2.5s-.2,1.5-.5,2.2c-.3.7-.8,1.3-1.4,1.8-.5.4-1.2.8-1.8.9l3.7,7.1c0,.2.1.4,0,.6M162.9,23.4c.1.1.2.3.2.5s0,.4-.2.5c-.1.1-.3.2-.5.2h-8.5c-.2,0-.4,0-.5-.2-.1-.1-.2-.3-.2-.5V7.3c0-.2,0-.4.2-.5s.3-.2.5-.2h8.5c.2,0,.4,0,.5.2.1.1.2.3.2.5s0,.4-.2.5c-.1.1-.3.2-.5.2h-7.8v6.7h6.5c.2,0,.4,0,.5.2.1.1.2.3.2.5s0,.4-.2.5c-.1.1-.3.2-.5.2h-6.5v7h7.8c.2,0,.4,0,.5.2ZM150.9,7.3c0,.2,0,.4-.2.5-.1.1-.3.2-.5.2h-5.2v16c0,.2,0,.4-.2.5-.1.1-.3.2-.5.2s-.4,0-.5-.2c-.1-.1-.2-.3-.2-.5v-16h-5.2c-.2,0-.4,0-.5-.2-.1-.1-.2-.3-.2-.5s0-.4.2-.5c.1-.1.3-.2.5-.2h11.8c.2,0,.4,0,.5.2s.2.3.2.5M136.2,7.3c0,.2,0,.4-.2.5-.1.1-.3.2-.5.2h-8.1v6.7h6.7c.2,0,.4,0,.5.2.1.1.2.3.2.5s0,.4-.2.5c-.1.1-.3.2-.5.2h-6.7v7.8c0,.2,0,.4-.2.5-.1.1-.3.2-.5.2s-.4,0-.5-.2c-.1-.1-.2-.3-.2-.5V7.3c0-.2,0-.4.2-.5.1-.1.3-.2.5-.2h8.8c.2,0,.4,0,.5.2s.2.3.2.5ZM122.7,7.3v16.7c0,.2,0,.4-.2.5-.1.1-.3.2-.5.2s-.4,0-.5-.2c-.1-.1-.2-.3-.2-.5V7.3c0-.2,0-.4.2-.5.1-.1.3-.2.5-.2s.4,0,.5.2c.1.1.2.3.2.5ZM118.1,7.2v16.7c0,.2,0,.4-.2.5-.1.1-.3.2-.5.2s-.4,0-.5-.2c-.1-.1-.2-.3-.2-.5v-8h-8.7v8c0,.2,0,.4-.2.5-.1.1-.3.2-.5.2s-.4,0-.5-.2c-.1-.1-.2-.3-.2-.5V7.2c0-.2,0-.4.2-.5.1-.1.3-.2.5-.2s.4,0,.5.2c.1.1.2.3.2.5v7.2h8.7v-7.2c0-.2,0-.4.2-.5.1-.1.3-.2.5-.2s.4,0,.5.2c.1.1.2.3.2.5ZM104.4,20.1c0,1.4-.5,2.6-1.5,3.4-1,.8-2.4,1.2-4.2,1.2s-2.3-.2-3.3-.6c-1-.4-1.9-1-2.6-1.8-.2-.2-.3-.3-.3-.5s.1-.4.3-.5c.3-.3.7-.3,1,0,.6.6,1.3,1.1,2.1,1.4.9.3,1.8.5,2.8.5s2.4-.3,3.2-.8c.8-.6,1.1-1.3,1.1-2.3s-.4-1.9-1.2-2.5c-.8-.6-2-1.1-3.7-1.3-1.7-.3-2.9-.8-3.8-1.6-.8-.8-1.2-1.9-1.2-3.4s.5-2.7,1.4-3.5c.9-.8,2.3-1.3,3.9-1.3s1.7.2,2.7.5c.9.3,1.8.8,2.6,1.4.4.3.4.7.1,1-.1.2-.3.3-.5.3-.2,0-.3,0-.5-.2-.6-.5-1.4-.9-2.1-1.2-.8-.3-1.5-.4-2.2-.4-1.2,0-2.2.3-2.9.9-.7.6-1,1.4-1,2.4s.3,1.8.9,2.4c.6.6,1.6,1,2.9,1.2,2.1.3,3.6.9,4.6,1.7,1,.9,1.5,2,1.5,3.5M92.7.9l-7.9,23.5c0,.2-.2.3-.4.4,0,0-.2,0-.3,0s-.2,0-.2,0c-.2,0-.3-.2-.4-.3,0-.2-.1-.4,0-.6L91.3.5c0-.2.2-.3.3-.4.2,0,.4-.1.5,0,.2,0,.3.2.4.4,0,.2,0,.3,0,.5M82.6,7.2l-8,23.5c0,.2-.2.3-.4.4,0,0-.2,0-.3,0s-.2,0-.2,0c-.2,0-.3-.2-.4-.3,0-.2-.1-.4,0-.6l8-23.5c0-.2.2-.3.3-.4.2,0,.4-.1.5,0,.2,0,.3.2.4.4,0,.2,0,.3,0,.5M72.2,24.2c0,.2-.2.3-.3.4-.1,0-.2,0-.4,0s-.1,0-.2,0c-.2,0-.3-.2-.4-.4l-4-7.7h-3.3c-.2,0-.4,0-.5-.2-.1-.1-.2-.3-.2-.5s0-.4.2-.5c.1-.1.3-.2.5-.2h3.6c.7,0,1.3-.2,1.8-.5.5-.3,1-.8,1.3-1.3.3-.5.5-1.2.5-1.8s-.2-1.3-.5-1.8c-.3-.5-.8-1-1.3-1.3-.5-.3-1.1-.5-1.8-.5h-5.3v16c0,.2,0,.4-.2.5-.1.1-.3.2-.5.2s-.4,0-.5-.2c-.1-.1-.2-.3-.2-.5V7.3c0-.2,0-.4.2-.5.1-.1.3-.2.5-.2h6c.9,0,1.8.2,2.5.7.7.5,1.4,1.1,1.8,1.8.5.8.7,1.6.7,2.5s-.2,1.5-.5,2.2c-.3.7-.8,1.3-1.4,1.8-.5.4-1.2.8-1.8.9l3.7,7.1c0,.2.1.4,0,.6M57.9,23.3c.1.1.2.3.2.5s0,.4-.2.5c-.1.1-.3.2-.5.2h-8.5c-.2,0-.4,0-.5-.2-.1-.1-.2-.3-.2-.5V7.3c0-.2,0-.4.2-.5.1-.1.3-.2.5-.2h8.5c.2,0,.4,0,.5.2.1.1.2.3.2.5s0,.4-.2.5c-.1.1-.3.2-.5.2h-7.8v6.7h6.5c.2,0,.4,0,.5.2.1.1.2.3.2.5s0,.4-.2.5c-.1.1-.3.2-.5.2h-6.5v6.9h7.8c.2,0,.4,0,.5.2ZM45.7,7.4l-3.9,16.7c0,.2-.2.5-.6.6-.4,0-.6-.1-.7-.5l-4.2-10.9-4.2,10.9c-.1.3-.3.5-.6.5s0,0-.1,0c-.3,0-.6-.2-.7-.5l-3.9-16.7c0-.2,0-.4,0-.5.1-.2.3-.3.4-.3.2,0,.4,0,.6.1s.3.3.3.5l3.4,14.4,4-10.4c.1-.3.3-.5.7-.5s.6.2.7.5l4,10.4,3.3-14.4c0-.2.1-.4.3-.5.2-.1.4-.1.6,0,.2,0,.3.1.4.3.1.2.1.4,0,.6ZM24.1,12.7v5.7c0,.9-.2,1.8-.6,2.5-.4.7-.9,1.3-1.6,1.7-.7.4-1.5.6-2.5.6s-1.8-.2-2.5-.6c-.7-.4-1.2-.9-1.6-1.7-.4-.7-.6-1.6-.6-2.5v-5.7c0-1,.2-1.8.6-2.5.4-.7.9-1.3,1.6-1.7.7-.4,1.5-.6,2.5-.6s1.8.2,2.5.6c.7.4,1.2.9,1.6,1.7.4.7.6,1.6.6,2.5ZM24.8,9.5c-.5-.9-1.2-1.7-2.1-2.2-.9-.5-2-.8-3.2-.8s-2.3.3-3.2.8c-.9.5-1.6,1.3-2.1,2.2-.5.9-.8,2-.8,3.3v5.7c0,1.2.3,2.3.8,3.3.5.9,1.2,1.7,2.1,2.2.9.5,2,.8,3.2.8s2.3-.3,3.2-.8c.9-.5,1.6-1.3,2.1-2.2.5-.9.8-2,.8-3.3v-5.7c0-1.2-.3-2.3-.8-3.3M10.1,11.9c0,.7-.2,1.3-.5,1.8-.3.5-.8,1-1.3,1.3-.5.3-1.1.5-1.8.5H1.4v-7.2h5.1c.7,0,1.3.2,1.8.5.5.3,1,.8,1.3,1.3.3.5.5,1.1.5,1.8M10.9,9.4c-.4-.8-1.1-1.4-1.8-1.8-.8-.5-1.6-.7-2.5-.7H.7c-.2,0-.4,0-.5.2-.1.1-.2.3-.2.5v16.4c0,.2,0,.4.2.5.1.1.3.2.5.2s.4,0,.5-.2c.1-.1.2-.3.2-.5v-7h5.1c.9,0,1.8-.2,2.5-.7.7-.5,1.4-1.1,1.8-1.9.4-.8.7-1.6.7-2.5s-.2-1.8-.7-2.5"/>
</svg>