<?xml version="1.0" encoding="UTF-8"?><svg id="Layer_2" xmlns="http://www.w3.org/2000/svg" viewBox="0 0 93.93 148.41"><defs><style>.cls-1{fill:#0260ff;}</style></defs><path class="cls-1" d="M45.07,31.93c-.37-.79-.98-1.37-1.87-1.77-.92-.27-1.81-.2-2.64,.21-.83,.42-1.4,1.06-1.68,1.9L.16,143.95c-.28,.92-.2,1.81,.21,2.64,.42,.85,1.1,1.38,2.03,1.58,.39,.16,.77,.24,1.15,.24,.45,0,.9-.12,1.33-.35,.77-.4,1.35-1.02,1.74-1.89L45.35,34.34c.18-.82,.09-1.63-.27-2.41Z"/><path class="cls-1" d="M93.57,1.93c-.37-.79-.98-1.37-1.87-1.77-.92-.27-1.81-.2-2.64,.21-.83,.42-1.4,1.06-1.68,1.9L49.11,113.95c-.28,.92-.2,1.81,.21,2.64,.42,.85,1.1,1.38,2.03,1.58,.39,.16,.77,.24,1.15,.24,.45,0,.9-.12,1.33-.35,.77-.4,1.35-1.02,1.74-1.89L93.84,4.34c.18-.82,.09-1.63-.27-2.41Z"/></svg>